<svg xmlns="http://www.w3.org/2000/svg" id="Layer_2" data-name="Layer 2" viewBox="0 0 1192.13 251.03"><defs><style>      .cls-1 {        fill: #fff;      }    </style></defs><g id="Layer_1-2" data-name="Layer 1"><g><g><g><path class="cls-1" d="M306.67,62.92v-27.94h177.56v27.94h-63.28c-7.81,0-14.14,6.33-14.14,14.14v138.99h-32.42V62.92h-67.72Z"></path><path class="cls-1" d="M483.17,77.73v27.38c3.17-8.2,8.89-15.27,17.18-21.24,8.29-5.96,19.23-8.94,32.84-8.94v33.81c-15.84,0-28.13,4.1-36.89,12.29-8.76,8.2-13.13,21.05-13.13,38.56v56.45h-31.02V77.73h31.02Z"></path><path class="cls-1" d="M585.06,77.73v138.32h-31.02V77.73h31.02Z"></path><path class="cls-1" d="M629.68,34.98c2.58,0,4.91,1.55,5.9,3.93l41.67,99.74c2.24,5.41,4.93,12.76,8.1,22.08l.09.28c1.96,5.78,10.14,5.78,12.1,0l.1-.28c3.17-9.31,5.87-16.67,8.11-22.08l41.67-99.74c.99-2.38,3.32-3.93,5.9-3.93h19.44c4.55,0,7.65,4.62,5.91,8.83l-65.23,158.21c-3.64,8.83-12.25,14.6-21.81,14.6h0c-9.55,0-18.16-5.76-21.81-14.6l-65.23-158.21c-1.74-4.21,1.36-8.83,5.91-8.83h19.16Z"></path><path class="cls-1" d="M798.78,209.21c-11.27-6.43-20.17-15.13-26.69-26.13-6.52-10.99-9.78-23.01-9.78-36.05s3.26-25.33,9.78-36.33c6.52-10.99,15.41-19.7,26.69-26.13,11.27-6.43,23.61-9.64,37.03-9.64s25.75,3.21,37.02,9.64c11.27,6.43,20.16,15.14,26.69,26.13,6.52,10.99,9.78,23.1,9.78,36.33s-3.26,25.06-9.78,36.05c-6.52,10.99-15.42,19.7-26.69,26.13-11.27,6.43-23.61,9.64-37.02,9.64s-25.76-3.21-37.03-9.64ZM860.19,181.64c4.01-2.72,7.49-6.2,10.21-10.21,4.88-7.19,7.33-15.33,7.33-24.4s-2.56-17.9-7.68-25.18c-2.77-3.94-6.28-7.34-10.29-9.99-7.08-4.68-15.06-7.02-23.94-7.02s-16.86,2.34-23.94,7.02c-4.02,2.65-7.52,6.06-10.29,9.99-5.12,7.28-7.68,15.67-7.68,25.18s2.44,17.21,7.33,24.4c2.72,4.01,6.2,7.49,10.21,10.21,7.19,4.87,15.31,7.31,24.38,7.31s17.19-2.44,24.38-7.31Z"></path><path class="cls-1" d="M959.36,209.35c-11.27-6.33-20.17-14.99-26.69-25.99-6.52-10.99-9.78-23.1-9.78-36.33s3.26-25.33,9.78-36.33c6.52-10.99,15.41-19.7,26.69-26.13,11.27-6.43,23.61-9.64,37.03-9.64,9.31,0,18.21,1.54,26.69,4.61,8.47,3.07,16.07,7.5,22.77,13.27l-19.28,22.08c-7.27-6.71-17.14-10.06-29.62-10.06s-22.45,3.96-30.46,11.87c-8.01,7.92-12.02,18.02-12.02,30.32s3.96,22.12,11.88,30.04c7.92,7.92,18.39,11.88,31.44,11.88,6.52,0,12.76-1.07,18.72-3.21,5.96-2.14,10.99-5.07,15.09-8.8l17.04,23.47c-6.89,5.78-14.86,10.3-23.89,13.55-9.04,3.26-18.49,4.89-28.36,4.89-13.41,0-25.76-3.16-37.03-9.5Z"></path><path class="cls-1" d="M1081.9,209.21c-9.78-6.43-17.37-15.09-22.77-25.99-5.41-10.9-8.1-22.96-8.1-36.19s2.7-25.33,8.1-36.33c5.4-10.99,12.99-19.7,22.77-26.13,9.78-6.43,20.82-9.64,33.11-9.64,9.31,0,17.98,1.77,25.99,5.31,8.01,3.54,14.71,8.57,20.12,15.09v-17.6h31.02v138.32h-31.02v-17.33c-5.41,6.52-12.11,11.51-20.12,14.95-8.01,3.45-16.68,5.17-25.99,5.17-12.3,0-23.33-3.21-33.11-9.64ZM1150.22,177.21c7.27-7.82,10.9-17.88,10.9-30.18s-3.63-22.17-10.9-30.18c-7.27-8.01-16.4-12.02-27.38-12.02-11.74,0-21.38,4.01-28.92,12.02-7.55,8.01-11.32,18.07-11.32,30.18s3.77,22.12,11.32,30.04c7.55,7.92,17.19,11.88,28.92,11.88,10.99,0,20.12-3.91,27.38-11.74Z"></path></g><g><path class="cls-1" d="M1016.55,10.61v16.1h19.65V10.61h7.21v40.29h-7.21v-18.03h-19.65v18.03h-7.21V10.61h7.21Z"></path><path class="cls-1" d="M1059.07,49.59c-2.53-1.28-4.55-3.13-6.06-5.53-1.51-2.4-2.27-5.24-2.27-8.52,0-2.9.69-5.59,2.08-8.05,1.39-2.47,3.29-4.41,5.72-5.84,2.42-1.43,5.11-2.14,8.05-2.14,2.69,0,5.17.72,7.43,2.14,2.26,1.43,4.05,3.36,5.38,5.78,1.33,2.43,1.99,5.05,1.99,7.87,0,.66-.02,1.23-.06,1.71-.04.48-.08.8-.12.96h-23.32c.5,2.36,1.62,4.2,3.36,5.5,1.74,1.31,3.81,1.96,6.22,1.96,1.57,0,3.13-.23,4.66-.68,1.53-.46,2.92-1.12,4.16-1.99l2.74,5.1c-1.74,1.2-3.62,2.11-5.63,2.74-2.01.62-4.03.93-6.06.93-2.98,0-5.74-.64-8.27-1.93ZM1071.82,27.55c-1.58-1.35-3.44-2.02-5.6-2.02-1.99,0-3.77.67-5.35,2.02-1.58,1.35-2.59,3.12-3.05,5.32h16.85c-.33-2.2-1.28-3.97-2.86-5.32Z"></path><path class="cls-1" d="M1093.74,49.38c-2.18-1.43-3.87-3.36-5.07-5.78-1.2-2.42-1.8-5.11-1.8-8.05s.6-5.64,1.8-8.08c1.2-2.45,2.89-4.38,5.07-5.81,2.18-1.43,4.63-2.14,7.37-2.14,2.07,0,4,.39,5.78,1.18,1.78.79,3.27,1.91,4.48,3.36v-3.92h6.9v30.78h-6.9v-3.86c-1.2,1.45-2.69,2.56-4.48,3.33-1.78.77-3.71,1.15-5.78,1.15-2.74,0-5.19-.71-7.37-2.14ZM1108.94,42.26c1.62-1.74,2.42-3.98,2.42-6.72s-.81-4.93-2.42-6.71c-1.62-1.78-3.65-2.67-6.09-2.67-2.61,0-4.76.89-6.43,2.67-1.68,1.78-2.52,4.02-2.52,6.71s.84,4.92,2.52,6.68c1.68,1.76,3.82,2.64,6.43,2.64,2.45,0,4.48-.87,6.09-2.61Z"></path><path class="cls-1" d="M1132.75,9.99v40.91h-6.9V9.99h6.9Z"></path><path class="cls-1" d="M1144.57,48.91c-1.53-1.74-2.3-4.37-2.3-7.9v-15.23h-4.54v-5.66h4.54v-6.03l6.9-1.43v7.46h9.26v5.66h-9.26v15.42c0,1.53.31,2.64.93,3.33.62.68,1.41,1.03,2.36,1.03.7,0,1.39-.11,2.05-.34.66-.23,1.2-.46,1.62-.68.41-.23.68-.38.81-.47l2.05,5.16c-2.36,1.53-4.83,2.3-7.4,2.3-3.15,0-5.49-.87-7.03-2.61Z"></path><path class="cls-1" d="M1171.18,9.99v14.55c1.08-1.66,2.47-2.91,4.17-3.76,1.7-.85,3.61-1.27,5.72-1.27,3.9,0,6.72,1.18,8.46,3.54,1.74,2.36,2.61,5.76,2.61,10.2v17.66h-6.9v-16.79c0-2.69-.47-4.69-1.4-6-.93-1.31-2.62-1.96-5.07-1.96s-4.17.81-5.53,2.43c-1.37,1.62-2.05,3.67-2.05,6.16v16.17h-6.9V9.99h6.9Z"></path></g><g><path class="cls-1" d="M670,202.38c.52,1.19,1.13,2.33,1.82,3.4l-1.82-3.4Z"></path><path class="cls-1" d="M673.61,188.66c8.02,0,13.96-5.04,16.85-12.01l6.42-14.26c-2.7,4.34-9.64,3.89-11.43-1.38l-.09-.28c-3.17-9.31-5.87-16.67-8.1-22.08l-41.67-99.74c-.99-2.38-3.32-3.93-5.9-3.93h-19.16c-4.55,0-7.65,4.62-5.91,8.83l58.39,141.61c3.04,2.03,6.68,3.24,10.62,3.24Z"></path></g><circle class="cls-1" cx="569.56" cy="48.85" r="18.85"></circle></g><g><path class="cls-1" d="M254.81,101.89c-3.26-1.63-6.95-1.89-10.41-.74-3.31,1.1-6.03,3.39-7.68,6.45l-62.86,107.87c-.49.85-1.24,1.03-1.78,1.03-.54.04-1.29-.17-1.8-1.01l-67.31-111.35c-3.89-6.43-12.28-8.5-18.7-4.62-3.12,1.88-5.31,4.87-6.18,8.4-.87,3.53-.31,7.19,1.57,10.31l73.72,121.95c4.11,6.79,11.27,10.83,19.19,10.83.08,0,.16,0,.25,0,8.02-.08,15.2-4.29,19.2-11.24l68.6-119.09.28-.53c3.36-6.71.63-14.91-6.08-18.27Z"></path><path class="cls-1" d="M254.81,101.89c-3.26-1.63-6.95-1.89-10.41-.74-3.31,1.1-6.03,3.39-7.68,6.45l-62.77,107.72c-2.9,7.01-9.8,11.95-17.86,11.95-5.8,0-10.99-2.57-14.53-6.61l11.81,19.54c4.11,6.79,11.27,10.83,19.19,10.83.08,0,.16,0,.25,0,8.02-.08,15.2-4.29,19.2-11.24l68.6-119.09.28-.53c3.36-6.71.63-14.91-6.08-18.27Z"></path><path class="cls-1" d="M81.78,14.53c.19,3.64,1.79,6.98,4.5,9.42,2.6,2.33,5.92,3.57,9.4,3.49l124.47.37c.98,0,1.51.57,1.78,1.04.31.45.49,1.21.02,2.06l-63.54,113.54c-3.67,6.56-1.32,14.88,5.23,18.54,3.18,1.78,6.86,2.21,10.36,1.22,3.5-.99,6.41-3.28,8.19-6.46l69.59-124.36c3.88-6.93,3.84-15.15-.07-22.03-.04-.07-.08-.14-.12-.21-4.04-6.93-11.24-11.1-19.26-11.14L95.26.19l-.6.02c-7.5.4-13.28,6.82-12.88,14.32Z"></path><path class="cls-1" d="M81.78,14.53c.19,3.64,1.79,6.98,4.5,9.42,2.6,2.33,5.92,3.57,9.4,3.49l124.3.36c7.53-.94,15.23,2.62,19.21,9.62,2.87,5.04,3.2,10.82,1.44,15.9l11.15-19.92c3.88-6.93,3.84-15.15-.07-22.03-.04-.07-.08-.14-.12-.21-4.04-6.93-11.24-11.1-19.26-11.14L95.26.19l-.6.02c-7.5.4-13.28,6.82-12.88,14.32Z"></path><path class="cls-1" d="M92.25,208.76c3.06-1.97,5.17-5.02,5.94-8.58.74-3.41.15-6.91-1.64-9.89l-63.4-108.14c-.48-.85-.25-1.59.02-2.06.24-.49.8-1.03,1.78-1.04l130.24-.1c7.51-.07,13.57-6.24,13.49-13.75-.03-3.64-1.48-7.05-4.08-9.6-2.6-2.55-6.03-3.93-9.67-3.9l-142.63.21c-7.94.08-15.05,4.18-19.09,11-.04.07-.08.14-.12.21-4.01,6.94-4.05,15.26-.11,22.25l70.13,118.79.31.51c4.07,6.31,12.51,8.14,18.82,4.07Z"></path><path class="cls-1" d="M92.23,208.94c3.06-1.97,5.17-5.02,5.94-8.58.74-3.41.15-6.91-1.64-9.89l-63.31-107.98c-4.56-6.07-5.29-14.52-1.19-21.46,2.95-4.99,7.8-8.15,13.08-9.14l-22.81.04c-7.94.08-15.16,4.36-19.19,11.18-.04.07-.08.14-.12.21-4.01,6.94-3.96,15.26-.02,22.25l70.13,118.79.31.51c4.07,6.31,12.51,8.14,18.82,4.07Z"></path></g></g></g></svg>